<svg width="32" height="32" viewBox="0 0 220 220" xmlns="http://www.w3.org/2000/svg" role="img" aria-label="patchpanel">
  <style>
    .pp { color: #0d9488; }
    @media (prefers-color-scheme: dark) {
      .pp { color: #14b8a6; }
    }
  </style>
  <g class="pp" fill="none" stroke="currentColor" stroke-width="3.5" stroke-linecap="round">
    <path d="M50 60 C 85 30, 140 100, 170 60"/>
    <path d="M50 60 C 95 130, 130 150, 170 110"/>
    <path d="M50 110 C 110 80, 120 40, 170 160"/>
    <path d="M50 110 C 80 160, 140 120, 170 60"/>
    <path d="M50 160 C 95 110, 130 70, 170 110"/>
    <path d="M50 160 C 90 130, 140 190, 170 160"/>
  </g>
  <g class="pp" fill="currentColor">
    <circle cx="50" cy="60" r="7"/>
    <circle cx="50" cy="110" r="7"/>
    <circle cx="50" cy="160" r="7"/>
    <circle cx="170" cy="60" r="7"/>
    <circle cx="170" cy="110" r="7"/>
    <circle cx="170" cy="160" r="7"/>
  </g>
</svg>
